<svg xmlns="http://www.w3.org/2000/svg" xmlns:svg="http://www.w3.org/2000/svg" xmlns:xlink="http://www.w3.org/1999/xlink" version="1.0" height="710pt" width="1104.7501098632813pt" viewBox="-14.950000000000003 342 1112.7501098632813 716" ><defs><style type="text/css">
            @font-face {
                font-family: 'noto_regular';
                src: url('https://app.creately.com/diagram/assets/fonts/noto/noto-regular.woff') format('woff'),
                     url('https://app.creately.com/diagram/assets/fonts/noto/noto-regular.woff2') format('woff2');
                font-weight: normal;
                font-style: normal;
            }
        p {
            margin: 0;
        }
        </style></defs><defs><style>
            span{ display: inline-block; }
        </style></defs><g id="9318k7eskv"><g transform="translate(545 455)"><rect x="0" y="0" width="79.11764979362488" height="39.444443583488464" fill="rgba(255,255,255,1)" stroke="#5e5ca7" stroke-width="1.5" stroke-linecap="round" stroke-linejoin="round"/></g><g transform="translate(566.5588248968124, 457.22222179174423) rotate(0, 18, 17.5)" width="36" height="35"><text text-decoration="none" x="2.5" fill="rgb(0, 0, 0)" font-weight="bold" font-size="10pt" font-family="Arial"  y="14">Seed</text><text text-decoration="none" x="33.5" fill="rgb(0, 0, 0)" font-weight="bold" font-size="10pt" font-family="Arial"  y="14"></text><text text-decoration="none" x="18" fill="#4b4b4b" font-size="10pt" font-family="noto_regular"  y="36"></text></g></g><g id="1i12hj2afj"><g transform="translate(685 475)"><ellipse cx="45.44117748737335" cy="19.166667759418488" rx="45.44117748737335" ry="19.166667759418488" fill="rgba(255,255,255,1)" stroke="#5e5ca7" stroke-width="1.5" stroke-linecap="round" stroke-linejoin="round"/></g><g transform="translate(702.9411774873734, 484.6666677594185) rotate(0, 27.5, 9.5)" width="55" height="19"><text text-decoration="underline" x="4" fill="rgb(0, 0, 0)" font-weight="bold" font-size="10pt" font-family="Arial"  y="17">seed_id</text><text text-decoration="none" x="51" fill="#4b4b4b" font-size="10pt" font-family="noto_regular"  y="17"></text></g></g><g id="4ms2o16jus"><g><path d="M 625,475 L 685,495" fill="none" stroke="#5e5ca7" stroke-width="1.5" stroke-linecap="round" stroke-linejoin="round"/></g></g><g id="b5krl2zf2q"><g transform="translate(580 350)"><ellipse cx="44.999998807907104" cy="20.000000298023224" rx="44.999998807907104" ry="20.000000298023224" fill="rgba(255,255,255,1)" stroke="#5e5ca7" stroke-width="1.5" stroke-linecap="round" stroke-linejoin="round"/></g><g transform="translate(584.4999988079071, 360.5000002980232) rotate(0, 40.5, 9.5)" width="81" height="19"><text text-decoration="none" x="5" fill="rgb(0, 0, 0)" font-weight="bold" font-size="10pt" font-family="Arial"  y="17">seed&#160;</text><text text-decoration="none" x="38" fill="rgb(0, 0, 0)" font-weight="bold" font-size="10pt" font-family="Arial"  y="17">name</text><text text-decoration="none" x="76" fill="#4b4b4b" font-size="10pt" font-family="noto_regular"  y="17"></text></g></g><g id="17p0l5euzk"><g transform="translate(490 385)"><ellipse cx="44.999998807907104" cy="20.000000298023224" rx="44.999998807907104" ry="20.000000298023224" fill="rgba(255,255,255,1)" stroke="#5e5ca7" stroke-width="1.5" stroke-linecap="round" stroke-linejoin="round"/></g><g transform="translate(518.9999988079071, 395.5000002980232) rotate(0, 16, 9.5)" width="32" height="19"><text text-decoration="none" x="1.5" fill="rgb(0, 0, 0)" font-weight="bold" font-size="10pt" font-family="Arial"  y="17">type</text><text text-decoration="none" x="30.5" fill="#4b4b4b" font-size="10pt" font-family="noto_regular"  y="17"></text></g></g><g id="2arxr7tgo5"><g transform="translate(685 360)"><ellipse cx="47.49999940395355" cy="20.000000298023224" rx="47.49999940395355" ry="20.000000298023224" fill="rgba(255,255,255,1)" stroke="#5e5ca7" stroke-width="1.5" stroke-linecap="round" stroke-linejoin="round"/></g><g transform="translate(700.4999994039536, 370.5000002980232) rotate(0, 32, 9.5)" width="64" height="19"><text text-decoration="none" x="3.5" fill="rgb(0, 0, 0)" font-weight="bold" font-size="10pt" font-family="Arial"  y="17">category</text><text text-decoration="none" x="60.5" fill="#4b4b4b" font-size="10pt" font-family="noto_regular"  y="17"></text></g></g><g id="2n38zd9sks"><g transform="translate(705 420)"><ellipse cx="44.999998807907104" cy="20.000000298023224" rx="44.999998807907104" ry="20.000000298023224" fill="rgba(255,255,255,1)" stroke="#5e5ca7" stroke-width="1.5" stroke-linecap="round" stroke-linejoin="round"/></g><g transform="translate(734.9999988079071, 430.5000002980232) rotate(0, 15, 9.5)" width="30" height="19"><text text-decoration="none" x="1" fill="rgb(0, 0, 0)" font-weight="bold" font-size="10pt" font-family="Arial"  y="17">rate</text><text text-decoration="none" x="29" fill="#4b4b4b" font-size="10pt" font-family="noto_regular"  y="17"></text></g></g><g id="2fu8wwqqjc"><g transform="translate(705 575)"><rect x="0" y="0" width="94.9999988079071" height="40.00000059604645" fill="rgba(255,255,255,1)" stroke="#5e5ca7" stroke-width="1.5" stroke-linecap="round" stroke-linejoin="round"/></g><g transform="translate(720.4999994039536, 585.5000002980232) rotate(0, 32, 9.5)" width="64" height="19"><text text-decoration="none" x="2.5" fill="rgb(0, 0, 0)" font-weight="bold" font-size="10pt" font-family="Arial"  y="17">Fertilizer</text><text text-decoration="none" x="61.5" fill="#4b4b4b" font-size="10pt" font-family="noto_regular"  y="17"></text></g></g><g id="1pyljf4gxd"><g transform="translate(830 485)"><ellipse cx="50" cy="25" rx="50" ry="25" fill="rgba(255,255,255,1)" stroke="#5e5ca7" stroke-width="1.5" stroke-linecap="round" stroke-linejoin="round"/></g><g transform="translate(839, 500.5) rotate(0, 41, 9.5)" width="82" height="19"><text text-decoration="underline" x="4" fill="rgb(0, 0, 0)" font-weight="bold" font-size="10pt" font-family="Arial"  y="17">fertilizer_id</text><text text-decoration="none" x="78" fill="#4b4b4b" font-size="10pt" font-family="noto_regular"  y="17"></text></g></g><g id="2077dsjvqd"><g transform="translate(885 540)"><ellipse cx="44.999998807907104" cy="20.000000298023224" rx="44.999998807907104" ry="20.000000298023224" fill="rgba(255,255,255,1)" stroke="#5e5ca7" stroke-width="1.5" stroke-linecap="round" stroke-linejoin="round"/></g><g transform="translate(906.4999988079071, 542.5000002980232) rotate(0, 23.5, 17.5)" width="47" height="35"><text text-decoration="none" x="2" fill="rgb(0, 0, 0)" font-weight="bold" font-size="10pt" font-family="Arial"  y="14">fname</text><text text-decoration="none" x="45" fill="rgb(0, 0, 0)" font-weight="bold" font-size="10pt" font-family="Arial"  y="14"></text><text text-decoration="none" x="23.5" fill="#4b4b4b" font-size="10pt" font-family="noto_regular"  y="36"></text></g></g><g id="61t2zkto0t"><g transform="translate(910 595.05)"><ellipse cx="45.00030279159546" cy="22.50015437602997" rx="45.00030279159546" ry="22.50015437602997" fill="rgba(255,255,255,1)" stroke="#5e5ca7" stroke-width="1.5" stroke-linecap="round" stroke-linejoin="round"/></g><g transform="translate(937.0003027915955, 600.0501543760299) rotate(0, 18, 17.5)" width="36" height="35"><text text-decoration="none" x="1.5" fill="rgb(0, 0, 0)" font-weight="bold" font-size="10pt" font-family="Arial"  y="14">frate</text><text text-decoration="none" x="34.5" fill="rgb(0, 0, 0)" font-weight="bold" font-size="10pt" font-family="Arial"  y="14"></text><text text-decoration="none" x="18" fill="#4b4b4b" font-size="10pt" font-family="noto_regular"  y="36"></text></g></g><g id="1qseupequh"><g transform="translate(920 655)"><ellipse cx="44.999998807907104" cy="19.722221791744232" rx="44.999998807907104" ry="19.722221791744232" fill="rgba(255,255,255,1)" stroke="#5e5ca7" stroke-width="1.5" stroke-linecap="round" stroke-linejoin="round"/></g><g transform="translate(934.9999988079071, 665.2222217917442) rotate(0, 30, 9.5)" width="60" height="19"><text text-decoration="none" x="1.5" fill="rgb(0, 0, 0)" font-weight="bold" font-size="10pt" font-family="Arial"  y="17">quantity</text><text text-decoration="none" x="58.5" fill="#4b4b4b" font-size="10pt" font-family="noto_regular"  y="17"></text></g></g><g id="gafbmweoki"><g transform="translate(910 710)"><ellipse cx="44.999998807907104" cy="22.499999403953552" rx="44.999998807907104" ry="22.499999403953552" fill="rgba(255,255,255,1)" stroke="#5e5ca7" stroke-width="1.5" stroke-linecap="round" stroke-linejoin="round"/></g><g transform="translate(924.4999988079071, 714.9999994039536) rotate(0, 30.5, 17.5)" width="61" height="35"><text text-decoration="none" x="4" fill="rgb(0, 0, 0)" font-weight="bold" font-size="10pt" font-family="Arial"  y="14">used&#160;</text><text text-decoration="none" x="38" fill="rgb(0, 0, 0)" font-weight="bold" font-size="10pt" font-family="Arial"  y="14">for&#160;</text><text text-decoration="none" x="16" fill="rgb(0, 0, 0)" font-weight="bold" font-size="10pt" font-family="Arial"  y="36">crop</text><text text-decoration="none" x="45" fill="#4b4b4b" font-size="10pt" font-family="noto_regular"  y="36"></text></g></g><g id="pk9qya07vf"><g transform="translate(315 480)"><rect x="0" y="0" width="89.73684310913086" height="39.444443583488464" fill="rgba(255,255,255,1)" stroke="#5e5ca7" stroke-width="1.5" stroke-linecap="round" stroke-linejoin="round"/></g><g transform="translate(342.86842155456543, 490.22222179174423) rotate(0, 17, 9.5)" width="34" height="19"><text text-decoration="none" x="2" fill="rgb(0, 0, 0)" font-weight="bold" font-size="10pt" font-family="Arial"  y="17">Crop</text><text text-decoration="none" x="32" fill="#4b4b4b" font-size="10pt" font-family="noto_regular"  y="17"></text></g></g><g id="b6kxuc9ovs"><g transform="translate(95 445)"><ellipse cx="44.999998807907104" cy="20.000000298023224" rx="44.999998807907104" ry="20.000000298023224" fill="rgba(255,255,255,1)" stroke="#5e5ca7" stroke-width="1.5" stroke-linecap="round" stroke-linejoin="round"/></g><g transform="translate(113.9999988079071, 455.5000002980232) rotate(0, 26, 9.5)" width="52" height="19"><text text-decoration="underline" x="3" fill="rgb(0, 0, 0)" font-weight="bold" font-size="10pt" font-family="Arial"  y="17">crop_id</text><text text-decoration="none" x="49" fill="#4b4b4b" font-size="10pt" font-family="noto_regular"  y="17"></text></g></g><g id="8mohvvupk0"><g transform="translate(155 360)"><ellipse cx="44.999998807907104" cy="20.000000298023224" rx="44.999998807907104" ry="20.000000298023224" fill="rgba(255,255,255,1)" stroke="#5e5ca7" stroke-width="1.5" stroke-linecap="round" stroke-linejoin="round"/></g><g transform="translate(160.9999988079071, 370.5000002980232) rotate(0, 39, 9.5)" width="78" height="19"><text text-decoration="none" x="4" fill="rgb(0, 0, 0)" font-weight="bold" font-size="10pt" font-family="Arial"  y="17">crop&#160;</text><text text-decoration="none" x="36" fill="rgb(0, 0, 0)" font-weight="bold" font-size="10pt" font-family="Arial"  y="17">name</text><text text-decoration="none" x="74" fill="#4b4b4b" font-size="10pt" font-family="noto_regular"  y="17"></text></g></g><g id="1ehfivpbx8"><g transform="translate(260 345)"><ellipse cx="47.49999940395355" cy="20.000000298023224" rx="47.49999940395355" ry="20.000000298023224" fill="rgba(255,255,255,1)" stroke="#5e5ca7" stroke-width="1.5" stroke-linecap="round" stroke-linejoin="round"/></g><g transform="translate(277.49999940395355, 355.5000002980232) rotate(0, 30, 9.5)" width="60" height="19"><text text-decoration="none" x="1.5" fill="rgb(0, 0, 0)" font-weight="bold" font-size="10pt" font-family="Arial"  y="17">quantity</text><text text-decoration="none" x="58.5" fill="#4b4b4b" font-size="10pt" font-family="noto_regular"  y="17"></text></g></g><g id="1h9wfgiihy"><g transform="translate(530 595)"><ellipse cx="40.001656621694565" cy="38.918255269527435" rx="40.001656621694565" ry="38.918255269527435" fill="rgba(255,255,255,1)" stroke="#3298da" stroke-width="1.5" stroke-linecap="round" stroke-linejoin="round"/></g><g transform="translate(536.0016566216946, 616.4182552695274) rotate(0, 34, 17.5)" width="68" height="35"><text text-decoration="none" x="2.5" fill="rgb(58, 135, 189)" font-size="10pt" font-family="Lato"  y="14">user/client&#160;&#160;</text><text text-decoration="none" x="18" fill="rgb(58, 135, 189)" font-size="10pt" font-family="Lato"  y="36">login&#160;</text><text text-decoration="none" x="50" fill="#4b4b4b" font-size="10pt" font-family="noto_regular"  y="36"></text></g></g><g id="2jnmbla6ed"><g transform="translate(200 655)"><rect x="0" y="0" width="89.99999761581421" height="34.99999940395355" fill="rgba(255,255,255,1)" stroke="#5e5ca7" stroke-width="1.5" stroke-linecap="round" stroke-linejoin="round"/></g><g transform="translate(214.9999988079071, 662.9999997019768) rotate(0, 30, 9.5)" width="60" height="19"><text text-decoration="none" x="2" fill="rgb(0, 0, 0)" font-weight="bold" font-size="10pt" font-family="Arial"  y="17">weather</text><text text-decoration="none" x="58" fill="#4b4b4b" font-size="10pt" font-family="noto_regular"  y="17"></text></g></g><g id="260zciikl8"><g transform="translate(245 805.05)"><rect x="0" y="0" width="89.99999761581421" height="34.99999940395355" fill="rgba(255,255,255,1)" stroke="#5e5ca7" stroke-width="1.5" stroke-linecap="round" stroke-linejoin="round"/></g><g transform="translate(263.4999988079071, 805.0499997019767) rotate(0, 26.5, 17.5)" width="53" height="35"><text text-decoration="none" x="2" fill="rgb(0, 0, 0)" font-weight="bold" font-size="10pt" font-family="Arial"  y="14">market&#160;</text><text text-decoration="none" x="4.5" fill="rgb(0, 0, 0)" font-weight="bold" font-size="10pt" font-family="Arial"  y="36">details</text><text text-decoration="none" x="48.5" fill="#4b4b4b" font-size="10pt" font-family="noto_regular"  y="36"></text></g></g><g id="11d8b7o8l0"><g transform="translate(795 815)"><rect x="0" y="0" width="89.99999761581421" height="34.99999940395355" fill="rgba(255,255,255,1)" stroke="#5e5ca7" stroke-width="1.5" stroke-linecap="round" stroke-linejoin="round"/></g><g transform="translate(824.4999988079071, 822.9999997019768) rotate(0, 15.5, 9.5)" width="31" height="19"><text text-decoration="none" x="1" fill="rgb(0, 0, 0)" font-weight="bold" font-size="10pt" font-family="Arial"  y="17">loan</text><text text-decoration="none" x="30" fill="#4b4b4b" font-size="10pt" font-family="noto_regular"  y="17"></text></g></g><g id="4dryiznn88"><g><path d="M 580,912.2777777777777 L 610,1010" fill="none" stroke="#a0a0a0" stroke-width="1.5" stroke-linecap="round" stroke-linejoin="round"/><path d="M 610,1010 Q 610.699958246301,1006.1466435405964 616.0517455812413,999.0459727051783 Q 607.4480456502638,1001.6872449978036 609.2088941515817,1007.4230459493191 Q 607.4480456502638,1001.6872449978036 598.8443457192861,1004.328517290429 Q 607.25847827391,1007.2031524576465 610,1010 Z" fill="rgb(160,160,160)" stroke="#a0a0a0" stroke-width="1.5" stroke-linecap="round" stroke-linejoin="round"/></g></g><g id="6oasr9yh8l"><g transform="translate(510 850)"><rect x="0" y="0" width="89.99999761581421" height="34.99999940395355" fill="rgba(255,255,255,1)" stroke="#5e5ca7" stroke-width="1.5" stroke-linecap="round" stroke-linejoin="round"/></g><g transform="translate(513.4999988079071, 841.9999997019768) rotate(0, 41.5, 25.5)" width="83" height="51"><text text-decoration="none" x="2.5" fill="rgb(0, 0, 0)" font-weight="bold" font-size="10pt" font-family="Arial"  y="14">agricultural</text><text text-decoration="none" x="80.5" fill="rgb(0, 0, 0)" font-weight="bold" font-size="10pt" font-family="Arial"  y="14"></text><text text-decoration="none" x="19.5" fill="rgb(0, 0, 0)" font-weight="bold" font-size="10pt" font-family="Arial"  y="33">expert&#160;</text><text text-decoration="none" x="18" fill="rgb(0, 0, 0)" font-weight="bold" font-size="10pt" font-family="Arial"  y="55">adviser</text><text text-decoration="none" x="65" fill="#4b4b4b" font-size="10pt" font-family="noto_regular"  y="55"></text></g></g><g id="789k9ky1gp"><g transform="translate(20 600)"><ellipse cx="49.900054931640625" cy="25" rx="49.900054931640625" ry="25" fill="rgba(255,255,255,1)" stroke="#5e5ca7" stroke-width="1.5" stroke-linecap="round" stroke-linejoin="round"/></g><g transform="translate(38.400054931640625, 615.5) rotate(0, 31.5, 9.5)" width="63" height="19"><text text-decoration="none" x="1.5" fill="rgb(0, 0, 0)" font-weight="bold" font-size="10pt" font-family="Arial"  y="17">humidity</text><text text-decoration="none" x="61.5" fill="#4b4b4b" font-size="10pt" font-family="noto_regular"  y="17"></text></g></g><g id="ozzi22d68o"><g transform="translate(-9.950000000000003 660)"><ellipse cx="49.900054931640625" cy="25" rx="49.900054931640625" ry="25" fill="rgba(255,255,255,1)" stroke="#5e5ca7" stroke-width="1.5" stroke-linecap="round" stroke-linejoin="round"/></g><g transform="translate(-6.049945068359378, 675.5) rotate(0, 46, 9.5)" width="92" height="19"><text text-decoration="none" x="3" fill="rgb(0, 0, 0)" font-weight="bold" font-size="10pt" font-family="Arial"  y="17">temperature</text><text text-decoration="none" x="89" fill="#4b4b4b" font-size="10pt" font-family="noto_regular"  y="17"></text></g></g><g id="24dh2zdu5t"><g transform="translate(20 740)"><ellipse cx="49.900054931640625" cy="25" rx="49.900054931640625" ry="25" fill="rgba(255,255,255,1)" stroke="#5e5ca7" stroke-width="1.5" stroke-linecap="round" stroke-linejoin="round"/></g><g transform="translate(38.900054931640625, 747.5) rotate(0, 31, 17.5)" width="62" height="35"><text text-decoration="none" x="2.5" fill="rgb(0, 0, 0)" font-weight="bold" font-size="10pt" font-family="Arial"  y="14">location&#x27;</text><text text-decoration="none" x="59.5" fill="rgb(0, 0, 0)" font-weight="bold" font-size="10pt" font-family="Arial"  y="14"></text><text text-decoration="none" x="31" fill="#4b4b4b" font-size="10pt" font-family="noto_regular"  y="36"></text></g></g><g id="cj96ebugp0"><g transform="translate(40 805)"><ellipse cx="49.900054931640625" cy="25" rx="49.900054931640625" ry="25" fill="rgba(255,255,255,1)" stroke="#5e5ca7" stroke-width="1.5" stroke-linecap="round" stroke-linejoin="round"/></g><g transform="translate(64.40005493164062, 812.5) rotate(0, 25.5, 17.5)" width="51" height="35"><text text-decoration="none" x="2" fill="rgb(0, 0, 0)" font-weight="bold" font-size="10pt" font-family="Arial"  y="14">district</text><text text-decoration="none" x="49" fill="rgb(0, 0, 0)" font-weight="bold" font-size="10pt" font-family="Arial"  y="14"></text><text text-decoration="none" x="10" fill="rgb(0, 0, 0)" font-weight="bold" font-size="10pt" font-family="Arial"  y="36">code</text><text text-decoration="none" x="41" fill="#4b4b4b" font-size="10pt" font-family="noto_regular"  y="36"></text></g></g><g id="1rdrci9207"><g transform="translate(55 880)"><ellipse cx="49.900054931640625" cy="25" rx="49.900054931640625" ry="25" fill="rgba(255,255,255,1)" stroke="#5e5ca7" stroke-width="1.5" stroke-linecap="round" stroke-linejoin="round"/></g><g transform="translate(75.90005493164062, 887.5) rotate(0, 29, 17.5)" width="58" height="35"><text text-decoration="none" x="4.5" fill="rgb(0, 0, 0)" font-weight="bold" font-size="10pt" font-family="Arial"  y="14">market&#160;</text><text text-decoration="none" x="4" fill="rgb(0, 0, 0)" font-weight="bold" font-size="10pt" font-family="Arial"  y="36">address</text><text text-decoration="none" x="54" fill="#4b4b4b" font-size="10pt" font-family="noto_regular"  y="36"></text></g></g><g id="b7vqit1865"><g transform="translate(145 945)"><ellipse cx="49.900054931640625" cy="25" rx="49.900054931640625" ry="25" fill="rgba(255,255,255,1)" stroke="#5e5ca7" stroke-width="1.5" stroke-linecap="round" stroke-linejoin="round"/></g><g transform="translate(159.40005493164062, 960.5) rotate(0, 35.5, 9.5)" width="71" height="19"><text text-decoration="none" x="3.5" fill="rgb(0, 0, 0)" font-weight="bold" font-size="10pt" font-family="Arial"  y="17">market&#160;</text><text text-decoration="none" x="55.5" fill="rgb(0, 0, 0)" font-weight="bold" font-size="10pt" font-family="Arial"  y="17">id</text><text text-decoration="none" x="67.5" fill="#4b4b4b" font-size="10pt" font-family="noto_regular"  y="17"></text></g></g><g id="108rtu2ovh"><g transform="translate(335 955)"><ellipse cx="49.900054931640625" cy="25" rx="49.900054931640625" ry="25" fill="rgba(255,255,255,1)" stroke="#5e5ca7" stroke-width="1.5" stroke-linecap="round" stroke-linejoin="round"/></g><g transform="translate(355.9000549316406, 970.5) rotate(0, 29, 9.5)" width="58" height="19"><text text-decoration="none" x="4" fill="rgb(0, 0, 0)" font-weight="bold" font-size="10pt" font-family="Arial"  y="17">address</text><text text-decoration="none" x="54" fill="#4b4b4b" font-size="10pt" font-family="noto_regular"  y="17"></text></g></g><g id="1jjwgu96v2"><g transform="translate(435 985)"><ellipse cx="49.900054931640625" cy="25" rx="49.900054931640625" ry="25" fill="rgba(255,255,255,1)" stroke="#5e5ca7" stroke-width="1.5" stroke-linecap="round" stroke-linejoin="round"/></g><g transform="translate(454.9000549316406, 992.5) rotate(0, 30, 17.5)" width="60" height="35"><text text-decoration="none" x="3" fill="rgb(0, 0, 0)" font-weight="bold" font-size="10pt" font-family="Arial"  y="14">contact&#160;</text><text text-decoration="none" x="57" fill="rgb(0, 0, 0)" font-weight="bold" font-size="10pt" font-family="Arial"  y="14"></text><text text-decoration="none" x="8" fill="rgb(0, 0, 0)" font-weight="bold" font-size="10pt" font-family="Arial"  y="36">details</text><text text-decoration="none" x="52" fill="#4b4b4b" font-size="10pt" font-family="noto_regular"  y="36"></text></g></g><g id="2lsb773zfq"><g transform="translate(555 1005)"><ellipse cx="49.900054931640625" cy="25" rx="49.900054931640625" ry="25" fill="rgba(255,255,255,1)" stroke="#5e5ca7" stroke-width="1.5" stroke-linecap="round" stroke-linejoin="round"/></g><g transform="translate(572.4000549316406, 1020.5) rotate(0, 32.5, 9.5)" width="65" height="19"><text text-decoration="none" x="3" fill="rgb(0, 0, 0)" font-weight="bold" font-size="10pt" font-family="Arial"  y="17">expert&#160;</text><text text-decoration="none" x="50" fill="rgb(0, 0, 0)" font-weight="bold" font-size="10pt" font-family="Arial"  y="17">id</text><text text-decoration="none" x="62" fill="#4b4b4b" font-size="10pt" font-family="noto_regular"  y="17"></text></g></g><g id="2b14hz79jo"><g transform="translate(680 965)"><ellipse cx="49.900054931640625" cy="25" rx="49.900054931640625" ry="25" fill="rgba(255,255,255,1)" stroke="#5e5ca7" stroke-width="1.5" stroke-linecap="round" stroke-linejoin="round"/></g><g transform="translate(700.9000549316406, 972.5) rotate(0, 29, 17.5)" width="58" height="35"><text text-decoration="none" x="12.5" fill="rgb(0, 0, 0)" font-weight="bold" font-size="10pt" font-family="Arial"  y="14">bank</text><text text-decoration="none" x="45.5" fill="rgb(0, 0, 0)" font-weight="bold" font-size="10pt" font-family="Arial"  y="14"></text><text text-decoration="none" x="4" fill="rgb(0, 0, 0)" font-weight="bold" font-size="10pt" font-family="Arial"  y="36">address</text><text text-decoration="none" x="54" fill="#4b4b4b" font-size="10pt" font-family="noto_regular"  y="36"></text></g></g><g id="sqwprbpvr0"><g transform="translate(810 985)"><ellipse cx="49.900054931640625" cy="25" rx="49.900054931640625" ry="25" fill="rgba(255,255,255,1)" stroke="#5e5ca7" stroke-width="1.5" stroke-linecap="round" stroke-linejoin="round"/></g><g transform="translate(825.9000549316406, 1000.5) rotate(0, 34, 9.5)" width="68" height="19"><text text-decoration="none" x="3.5" fill="rgb(0, 0, 0)" font-weight="bold" font-size="10pt" font-family="Arial"  y="17">loan&#160;</text><text text-decoration="none" x="35.5" fill="rgb(0, 0, 0)" font-weight="bold" font-size="10pt" font-family="Arial"  y="17">type</text><text text-decoration="none" x="64.5" fill="#4b4b4b" font-size="10pt" font-family="noto_regular"  y="17"></text></g></g><g id="72puwfu57r"><g transform="translate(950 955)"><ellipse cx="49.900054931640625" cy="25" rx="49.900054931640625" ry="25" fill="rgba(255,255,255,1)" stroke="#5e5ca7" stroke-width="1.5" stroke-linecap="round" stroke-linejoin="round"/></g><g transform="translate(975.4000549316406, 970.5) rotate(0, 24.5, 9.5)" width="49" height="19"><text text-decoration="none" x="2.5" fill="rgb(0, 0, 0)" font-weight="bold" font-size="10pt" font-family="Arial"  y="17">loan&#160;</text><text text-decoration="none" x="34.5" fill="rgb(0, 0, 0)" font-weight="bold" font-size="10pt" font-family="Arial"  y="17">id</text><text text-decoration="none" x="46.5" fill="#4b4b4b" font-size="10pt" font-family="noto_regular"  y="17"></text></g></g><g id="1x5c3n1u62"><g transform="translate(995 870)"><ellipse cx="49.900054931640625" cy="25" rx="49.900054931640625" ry="25" fill="rgba(255,255,255,1)" stroke="#5e5ca7" stroke-width="1.5" stroke-linecap="round" stroke-linejoin="round"/></g><g transform="translate(998.9000549316406, 885.5) rotate(0, 46, 9.5)" width="92" height="19"><text text-decoration="none" x="3.5" fill="rgb(0, 0, 0)" font-weight="bold" font-size="10pt" font-family="Arial"  y="17">loan&#160;</text><text text-decoration="none" x="35.5" fill="rgb(0, 0, 0)" font-weight="bold" font-size="10pt" font-family="Arial"  y="17">amount</text><text text-decoration="none" x="88.5" fill="#4b4b4b" font-size="10pt" font-family="noto_regular"  y="17"></text></g></g><g id="9ls10546q3"><g><path d="M 999.9000549316406,980 L 1045,980" fill="none" stroke="#a0a0a0" stroke-width="1.5" stroke-linecap="round" stroke-linejoin="round"/></g></g><g id="lok4zysyml"><g><path d="M 205,660 L 95,645" fill="none" stroke="#a0a0a0" stroke-width="1.5" stroke-linecap="round" stroke-linejoin="round"/><path d="M 95,645 Q 98.20316207566955,647.2534529652924 102.39989587361471,655.092367393998 Q 103.61591450473304,646.1748974324636 97.67093349646724,645.3642182040637 Q 103.61591450473304,646.1748974324636 104.83193313585136,637.2574274709292 Q 98.68956952811688,643.6864649806786 95,645 Z" fill="rgb(160,160,160)" stroke="#a0a0a0" stroke-width="1.5" stroke-linecap="round" stroke-linejoin="round"/></g></g><g id="1y2gcitpyt"><g><path d="M 195,685 L 105,750" fill="none" stroke="#a0a0a0" stroke-width="1.5" stroke-linecap="round" stroke-linejoin="round"/><path d="M 105,750 Q 108.87363665154851,749.422733474405 117.31879866296096,752.2048895793677 Q 112.04938459478157,744.9087777926577 107.1853092243823,748.4217211157239 Q 112.04938459478157,744.9087777926577 106.77997052660218,737.6126660059479 Q 106.76587102427675,746.5042887597211 105,750 Z" fill="rgb(160,160,160)" stroke="#a0a0a0" stroke-width="1.5" stroke-linecap="round" stroke-linejoin="round"/></g></g><g id="48t798y2fy"><g><path d="M 195,675 L 90,685" fill="none" stroke="#a0a0a0" stroke-width="1.5" stroke-linecap="round" stroke-linejoin="round"/><path d="M 90,685 Q 93.6332492852039,686.4621207820688 99.50976405563733,693.1350308027617 Q 98.6564823703822,684.1755731075826 92.68350953481848,684.7444276633506 Q 98.6564823703822,684.1755731075826 97.80320068512705,675.2161154124036 Q 93.29193661110185,682.8783377039972 90,685 Z" fill="rgb(160,160,160)" stroke="#a0a0a0" stroke-width="1.5" stroke-linecap="round" stroke-linejoin="round"/></g></g><g id="1a0ktdffnt"><g><path d="M 240,820 L 138.56666666666675,838.3611111111111" fill="none" stroke="#a0a0a0" stroke-width="1.5" stroke-linecap="round" stroke-linejoin="round"/><path d="M 138.56666666666675,838.3611111111111 Q 142.30992393431507,839.5127719023124 148.72635781880606,845.6683003278288 Q 147.12326185276908,836.8122258503997 141.21921117435846,837.8809566802905 Q 147.12326185276908,836.8122258503997 145.52016588673212,827.9561513729707 Q 141.66868554790028,835.9703421113408 138.56666666666675,838.3611111111111 Z" fill="rgb(160,160,160)" stroke="#a0a0a0" stroke-width="1.5" stroke-linecap="round" stroke-linejoin="round"/></g></g><g id="5bzpu4cw7a"><g><path d="M 240,840 L 150,895" fill="none" stroke="#a0a0a0" stroke-width="1.5" stroke-linecap="round" stroke-linejoin="round"/><path d="M 150,895 Q 153.90654666648314,894.7221678701411 162.11289130065947,898.1451872590009 Q 157.41984203175616,890.4656520917046 152.30015102984441,893.5943521484285 Q 157.41984203175616,890.4656520917046 152.72679276285288,882.7861169244082 Q 152.0293269589218,891.6503538032225 150,895 Z" fill="rgb(160,160,160)" stroke="#a0a0a0" stroke-width="1.5" stroke-linecap="round" stroke-linejoin="round"/></g></g><g id="999az9dar4"><g><path d="M 260,870 L 205,945" fill="none" stroke="#a0a0a0" stroke-width="1.5" stroke-linecap="round" stroke-linejoin="round"/><path d="M 205,945 Q 208.50844583097881,943.2595674673003 217.39993642769824,943.3100546917681 Q 210.1422927271958,937.987782644733 206.5941107454307,942.8262126198672 Q 210.1422927271958,937.987782644733 202.88464902669335,932.6655105976979 Q 205.60538835077784,941.1306586484861 205,945 Z" fill="rgb(160,160,160)" stroke="#a0a0a0" stroke-width="1.5" stroke-linecap="round" stroke-linejoin="round"/></g></g><g id="2agm18sbib"><g><path d="M 505,890 L 410,960" fill="none" stroke="#a0a0a0" stroke-width="1.5" stroke-linecap="round" stroke-linejoin="round"/><path d="M 410,960 Q 413.86795229967396,959.3857992533061 422.33927595616655,962.0872487713118 Q 417.0004855422032,954.8417474952187 412.170150518083,958.4009417235178 Q 417.0004855422032,954.8417474952187 411.66169512823984,947.5962462191255 Q 411.73243613408863,956.4875987428688 410,960 Z" fill="rgb(160,160,160)" stroke="#a0a0a0" stroke-width="1.5" stroke-linecap="round" stroke-linejoin="round"/></g></g><g id="1dbq943u0y"><g><path d="M 535,915 L 492.261111111111,986.2888888888886" fill="none" stroke="#a0a0a0" stroke-width="1.5" stroke-linecap="round" stroke-linejoin="round"/><path d="M 492.261111111111,986.2888888888886 Q 495.59341758676857,984.2312127476838 504.45141725831496,983.4585577080524 Q 496.73233734219474,978.8308393637012 493.64719124274694,983.9768935360805 Q 496.73233734219474,978.8308393637012 489.0132574260745,974.2031210193501 Q 492.50578562032047,982.3801254099434 492.261111111111,986.2888888888886 Z" fill="rgb(160,160,160)" stroke="#a0a0a0" stroke-width="1.5" stroke-linecap="round" stroke-linejoin="round"/></g></g><g id="96ig3jyfvp"><g><path d="M 815,855 L 730.011111111111,963.888888888889" fill="none" stroke="#a0a0a0" stroke-width="1.5" stroke-linecap="round" stroke-linejoin="round"/><path d="M 730.011111111111,963.888888888889 Q 733.5701745661914,962.254457834209 742.4561516176193,962.5715789985669 Q 735.3613878800053,957.0340435058109 731.6696969094683,961.7638868201348 Q 735.3613878800053,957.0340435058109 728.2666241423914,951.4965080130548 Q 730.7322690711459,960.0394436371066 730.011111111111,963.888888888889 Z" fill="rgb(160,160,160)" stroke="#a0a0a0" stroke-width="1.5" stroke-linecap="round" stroke-linejoin="round"/></g></g><g id="15pfoqxm3x"><g><path d="M 868.9444444444441,855.6111111111112 L 845,985" fill="none" stroke="#a0a0a0" stroke-width="1.5" stroke-linecap="round" stroke-linejoin="round"/><path d="M 845,985 Q 847.4028808568065,981.9073536998575 855.4320711519421,978.0872415030907 Q 846.5823331320906,976.4495269961968 845.4905232709481,982.349353368821 Q 846.5823331320906,976.4495269961968 837.7325951122392,974.811812489303 Q 843.862985648866,981.2522678971 845,985 Z" fill="rgb(160,160,160)" stroke="#a0a0a0" stroke-width="1.5" stroke-linecap="round" stroke-linejoin="round"/></g></g><g id="26gqrm2234"><g><path d="M 880,850 L 965,965" fill="none" stroke="#a0a0a0" stroke-width="1.5" stroke-linecap="round" stroke-linejoin="round"/><path d="M 965,965 Q 964.3800696339101,961.1329618710191 967.0689660920187,952.6576453678462 Q 959.8313820775321,958.0071639872493 963.397728444035,962.8322208360473 Q 959.8313820775321,958.0071639872493 952.5937980630455,963.3566826066525 Q 961.4850360281155,963.2727693187803 965,965 Z" fill="rgb(160,160,160)" stroke="#a0a0a0" stroke-width="1.5" stroke-linecap="round" stroke-linejoin="round"/></g></g><g id="1cqqjagdyg"><g><path d="M 890.0555555555555,846.2222222222222 L 1000,885" fill="none" stroke="#a0a0a0" stroke-width="1.5" stroke-linecap="round" stroke-linejoin="round"/><path d="M 1000,885 Q 997.3185060486367,882.1455494856988 994.7930580075113,873.6201013342547 Q 991.7994722356724,882.1076460942392 997.4578363930584,884.1033702892141 Q 991.7994722356724,882.1076460942392 988.8058864638335,890.5951908542236 Q 996.1210717399011,885.5405673896926 1000,885 Z" fill="rgb(160,160,160)" stroke="#a0a0a0" stroke-width="1.5" stroke-linecap="round" stroke-linejoin="round"/></g></g><g id="1uxrvjrw7v"><g><path d="M 800,580 L 845,530" fill="none" stroke="#a0a0a0" stroke-width="1.5" stroke-linecap="round" stroke-linejoin="round"/><path d="M 845,530 Q 841.3352369203169,531.381234635963 832.4932692243883,530.4427458211441 Q 839.1829153771961,536.463427358671 843.1967037669308,532.003662481188 Q 839.1829153771961,536.463427358671 845.8725615300038,542.484108896198 Q 844.01109538144,533.7895072509738 845,530 Z" fill="rgb(160,160,160)" stroke="#a0a0a0" stroke-width="1.5" stroke-linecap="round" stroke-linejoin="round"/></g></g><g id="2gr11ju7p9"><g><path d="M 800,595 L 885,565" fill="none" stroke="#a0a0a0" stroke-width="1.5" stroke-linecap="round" stroke-linejoin="round"/><path d="M 885,565 Q 881.1209575145842,564.46025288687 873.8047035171205,559.4071764540441 Q 876.800084055801,567.8940879803056 882.4580260572983,565.8971672738948 Q 876.800084055801,567.8940879803056 879.7954645944815,576.3809995065669 Q 882.3191097300564,567.8550174973745 885,565 Z" fill="rgb(160,160,160)" stroke="#a0a0a0" stroke-width="1.5" stroke-linecap="round" stroke-linejoin="round"/></g></g><g id="1fhnep8api"><g><path d="M 800,610 L 910,610" fill="none" stroke="#a0a0a0" stroke-width="1.5" stroke-linecap="round" stroke-linejoin="round"/><path d="M 910,610 Q 906.5217391304348,608.2000003130435 901.304347826087,601.0000015652171 Q 901.304347826087,610 907.304347826087,610 Q 901.304347826087,610 901.304347826087,618.9999984347829 Q 906.5217391304348,611.7999996869565 910,610 Z" fill="rgb(160,160,160)" stroke="#a0a0a0" stroke-width="1.5" stroke-linecap="round" stroke-linejoin="round"/></g></g><g id="25lght6cb3"><g><path d="M 790,610 L 925,670" fill="none" stroke="#a0a0a0" stroke-width="1.5" stroke-linecap="round" stroke-linejoin="round"/><path d="M 925,670 Q 922.5525741600346,666.9424839644473 920.7090581794796,658.2440586574838 Q 917.0538126206934,666.4683611647527 922.5366819124149,668.9051919610733 Q 917.0538126206934,666.4683611647527 913.3985670619072,674.6926636720215 Q 921.0904759365202,670.2322049673548 925,670 Z" fill="rgb(160,160,160)" stroke="#a0a0a0" stroke-width="1.5" stroke-linecap="round" stroke-linejoin="round"/></g></g><g id="3wasxzeduf"><g><path d="M 360,542 L 360,542" fill="none" stroke="#a0a0a0" stroke-width="1.5" stroke-linecap="round" stroke-linejoin="round"/></g></g><g id="2o3y4bifbx"><g><path d="M 254,379 L 254,379" fill="none" stroke="#a0a0a0" stroke-width="1.5" stroke-linecap="round" stroke-linejoin="round"/></g></g><g id="3854zm5i0m"><g><path d="M 518.55,402.1 L 518.55,402.1" fill="none" stroke="#a0a0a0" stroke-width="1.5" stroke-linecap="round" stroke-linejoin="round"/></g></g><g id="1gv0ic2t3b"><g><path d="M 345,526 L 345,526" fill="none" stroke="#a0a0a0" stroke-width="1.5" stroke-linecap="round" stroke-linejoin="round"/></g></g><g id="7hxs1tl2nr"><g><path d="M 344,517 L 344,517" fill="none" stroke="#a0a0a0" stroke-width="1.5" stroke-linecap="round" stroke-linejoin="round"/></g></g><g id="197y8dwqdt"><g><path d="M 343,511 L 343,511" fill="none" stroke="#a0a0a0" stroke-width="1.5" stroke-linecap="round" stroke-linejoin="round"/></g></g><g id="4eqpdz2img"><g><path d="M 186,445 L 186,445" fill="none" stroke="#a0a0a0" stroke-width="1.5" stroke-linecap="round" stroke-linejoin="round"/></g></g><g id="1tdlkjt2ge"><g><path d="M 163,393 L 163,393" fill="none" stroke="#a0a0a0" stroke-width="1.5" stroke-linecap="round" stroke-linejoin="round"/></g></g><g id="1hxe3ke2wk"><g><path d="M 167,388 L 167,388" fill="none" stroke="#a0a0a0" stroke-width="1.5" stroke-linecap="round" stroke-linejoin="round"/></g></g><g id="1ohersuoxt"><g><path d="M 555,419 L 580,450" fill="none" stroke="#a0a0a0" stroke-width="1.5" stroke-linecap="round" stroke-linejoin="round"/><path d="M 555,419 Q 555.7823435593685,422.8374778311942 553.4530008299752,431.41858011705506 Q 560.4587169668677,425.7688090389159 556.692202259729,421.0983308020639 Q 560.4587169668677,425.7688090389159 567.4644331037603,420.1190379607767 Q 558.5846300141255,420.5775693999385 555,419 Z" fill="rgb(160,160,160)" stroke="#a0a0a0" stroke-width="1.5" stroke-linecap="round" stroke-linejoin="round"/></g></g><g id="vok3ntdot1"><g><path d="M 625,390 L 605,450" fill="none" stroke="#a0a0a0" stroke-width="1.5" stroke-linecap="round" stroke-linejoin="round"/><path d="M 625,390 Q 622.1924476960818,392.7305581133819 613.7120451414247,395.40337058386154 Q 622.250193338984,398.24941998304797 624.147559935085,392.5573201947449 Q 622.250193338984,398.24941998304797 630.7883415365433,401.0954693822344 Q 625.6077069751054,393.86897787305645 625,390 Z" fill="rgb(160,160,160)" stroke="#a0a0a0" stroke-width="1.5" stroke-linecap="round" stroke-linejoin="round"/></g></g><g id="2jexm3nr57"><g><path d="M 695,390 L 620,455" fill="none" stroke="#a0a0a0" stroke-width="1.5" stroke-linecap="round" stroke-linejoin="round"/><path d="M 695,390 Q 691.1926414696442,390.9177791516039 682.5344167637843,388.8938475978643 Q 688.4287905844363,395.6950481601551 692.9629250811753,391.7654649296481 Q 688.4287905844363,395.6950481601551 694.3231644050885,402.496248722446 Q 693.550390997905,393.63825937652024 695,390 Z" fill="rgb(160,160,160)" stroke="#a0a0a0" stroke-width="1.5" stroke-linecap="round" stroke-linejoin="round"/></g></g><g id="24231mlvqi"><g><path d="M 700,440 L 625,465" fill="none" stroke="#a0a0a0" stroke-width="1.5" stroke-linecap="round" stroke-linejoin="round"/><path d="M 700,440 Q 696.1310221269435,439.3922930248945 688.9045306177657,434.2116584634567 Q 691.7505800169521,442.749806661016 697.4426798052551,440.85244006491496 Q 691.7505800169521,442.749806661016 694.5966294161385,451.2879548585753 Q 697.2694418866181,442.80755230391827 700,440 Z" fill="rgb(160,160,160)" stroke="#a0a0a0" stroke-width="1.5" stroke-linecap="round" stroke-linejoin="round"/></g></g><g id="9c2enc85jp"><g><path d="M 225,390 L 320,475" fill="none" stroke="#a0a0a0" stroke-width="1.5" stroke-linecap="round" stroke-linejoin="round"/><path d="M 225,390 Q 226.3919131609078,393.6607205987734 225.47920655649466,402.50538682456425 Q 231.48035924804435,395.7982161693028 227.00891136689376,391.7974470124839 Q 231.48035924804435,395.7982161693028 237.48151193959404,389.0910455140414 Q 228.79237423752767,390.97785233666883 225,390 Z" fill="rgb(160,160,160)" stroke="#a0a0a0" stroke-width="1.5" stroke-linecap="round" stroke-linejoin="round"/></g></g><g id="9lou7t5kck"><g><path d="M 320,385 L 393,477" fill="none" stroke="#a0a0a0" stroke-width="1.5" stroke-linecap="round" stroke-linejoin="round"/><path d="M 320,385 Q 320.75196153435525,388.8435467215376 318.35480825206594,397.40595351709425 Q 325.4049994197103,391.8117800905938 321.6755498201102,387.11165182808406 Q 325.4049994197103,391.8117800905938 332.45519058735465,386.21760666409335 Q 323.572038001413,386.6058773509374 320,385 Z" fill="rgb(160,160,160)" stroke="#a0a0a0" stroke-width="1.5" stroke-linecap="round" stroke-linejoin="round"/></g></g><g id="vskrriko6f"><g><path d="M 179,471 L 310,490" fill="none" stroke="#a0a0a0" stroke-width="1.5" stroke-linecap="round" stroke-linejoin="round"/><path d="M 179,471 Q 182.18387835481155,473.2806174978621 186.31378262568717,481.15494570443235 Q 187.6056091483706,472.24814178487816 181.6677388359949,471.38692395331225 Q 187.6056091483706,472.24814178487816 188.89743567105404,463.34133786532396 Q 182.70060896388492,469.7178959300404 179,471 Z" fill="rgb(160,160,160)" stroke="#a0a0a0" stroke-width="1.5" stroke-linecap="round" stroke-linejoin="round"/></g></g><g id="2e6alodjwg"><g><path d="M 332,808 L 545,670" fill="none" stroke="#a0a0a0" stroke-width="1.5" stroke-linecap="round" stroke-linejoin="round"/><path d="M 332,808 Q 335.89787462521497,807.6193808256304 344.1915219980883,810.8250893660027 Q 339.2978511279864,803.2718147621497 334.26233384967577,806.5342625762664 Q 339.2978511279864,803.2718147621497 334.4041802578845,795.7185401582967 Q 333.9404062771742,804.5980709840893 332,808 Z" fill="rgb(160,160,160)" stroke="#a0a0a0" stroke-width="1.5" stroke-linecap="round" stroke-linejoin="round"/></g></g><g id="27dzl8y4hm"><g><path d="M 293,674 L 525,630" fill="none" stroke="#a0a0a0" stroke-width="1.5" stroke-linecap="round" stroke-linejoin="round"/><path d="M 293,674 Q 296.7527449461325,675.1203583886728 303.2203636497324,681.2220845621608 Q 301.54336108093,672.3797073812029 295.64844193508833,673.4977092881729 Q 301.54336108093,672.3797073812029 299.8663585121277,663.537330200245 Q 296.08194391861156,671.5834075162896 293,674 Z" fill="rgb(160,160,160)" stroke="#a0a0a0" stroke-width="1.5" stroke-linecap="round" stroke-linejoin="round"/></g></g><g id="7eo4wn9nq1"><g><path d="M 545,850 L 575,675" fill="none" stroke="#a0a0a0" stroke-width="1.5" stroke-linecap="round" stroke-linejoin="round"/><path d="M 545,850 Q 547.3618199765938,846.8758834932169 555.3398493167879,842.9500457688085 Q 546.4692505661812,841.429371697276 545.4554676755162,847.3431052261556 Q 546.4692505661812,841.429371697276 537.5986518155747,839.9086976257433 Q 543.8135804763511,846.2676138646038 545,850 Z" fill="rgb(160,160,160)" stroke="#a0a0a0" stroke-width="1.5" stroke-linecap="round" stroke-linejoin="round"/></g></g><g id="lzn8hjli72"><g><path d="M 793.3,827.5 L 605,655" fill="none" stroke="#a0a0a0" stroke-width="1.5" stroke-linecap="round" stroke-linejoin="round"/><path d="M 793.3,827.5 Q 791.9511398509957,823.8231978774728 792.9675724323791,814.9898509014457 Q 786.8881268225995,821.6261384859183 791.3123193150058,825.6791029306347 Q 786.8881268225995,821.6261384859183 780.8086812128197,828.2624260703908 Q 789.5193616070839,826.4777129112618 793.3,827.5 Z" fill="rgb(160,160,160)" stroke="#a0a0a0" stroke-width="1.5" stroke-linecap="round" stroke-linejoin="round"/></g></g><g id="1a2saouhm4"><g><path d="M 705,610 L 610,625" fill="none" stroke="#a0a0a0" stroke-width="1.5" stroke-linecap="round" stroke-linejoin="round"/><path d="M 705,610 Q 701.2835701458619,608.7645054880483 695.0070939060837,602.4663311491715 Q 696.4107568232255,611.3561962910696 702.3373346151999,610.4204208502316 Q 696.4107568232255,611.3561962910696 697.8144197403673,620.2460614329677 Q 701.8450353127186,612.3204515448075 705,610 Z" fill="rgb(160,160,160)" stroke="#a0a0a0" stroke-width="1.5" stroke-linecap="round" stroke-linejoin="round"/></g></g><g id="5st11e9z3e"><g><path d="M 600,495 L 585,595" fill="none" stroke="#a0a0a0" stroke-width="1.5" stroke-linecap="round" stroke-linejoin="round"/><path d="M 600,495 Q 597.7039480816162,498.1727658498349 589.8096573900833,502.26438270249366 Q 598.7100830179979,503.59944654668084 599.6001257355794,497.66582842947105 Q 598.7100830179979,503.59944654668084 607.6105086459124,504.934510390868 Q 601.2641183327821,498.7067913875098 600,495 Z" fill="rgb(160,160,160)" stroke="#a0a0a0" stroke-width="1.5" stroke-linecap="round" stroke-linejoin="round"/></g></g><g id="2betwsitc1"><g><path d="M 405,515 L 550,595" fill="none" stroke="#a0a0a0" stroke-width="1.5" stroke-linecap="round" stroke-linejoin="round"/><path d="M 405,515 Q 407.1759485305987,518.2563085759764 408.26602366145625,527.0808703328271 Q 412.6137189915373,519.2006725470551 407.3602528873766,516.3022084895871 Q 412.6137189915373,519.2006725470551 416.9614143216184,511.3204747612831 Q 408.91502666263113,515.1042294616676 405,515 Z" fill="rgb(160,160,160)" stroke="#a0a0a0" stroke-width="1.5" stroke-linecap="round" stroke-linejoin="round"/></g></g></svg>